name C:\Users\u0101727\Documents\MyRepositories\upper-imu-dc\OpenSim\subject0\MA\ResultsMA\grid_4nodes_9dim\angles_17.mot
datacolumns 10
datarows 33
range 1750.01000000 1750.33000000
endheader 
time	clav_prot	clav_elev	scapula_abduction	scapula_elevation	scapula_upward_rot	scapula_winging	plane_elv	shoulder_elv	axial_rot	
       1750.01000000	        -50.00000000	         10.00000000	        -21.66666667	          3.33333333	         90.00000000	          0.00000000	         30.00000000	         63.33333333	         30.00000000	
       1750.02000000	        -38.33333333	         10.00000000	        -21.66666667	          3.33333333	         90.00000000	          0.00000000	         30.00000000	         63.33333333	         30.00000000	
       1750.03000000	        -26.66666667	         10.00000000	        -21.66666667	          3.33333333	         90.00000000	          0.00000000	         30.00000000	         63.33333333	         30.00000000	
       1750.04000000	        -15.00000000	         10.00000000	        -21.66666667	          3.33333333	         90.00000000	          0.00000000	         30.00000000	         63.33333333	         30.00000000	
       1750.05000000	        -50.00000000	         20.00000000	        -21.66666667	          3.33333333	         90.00000000	          0.00000000	         30.00000000	         63.33333333	         30.00000000	
       1750.06000000	        -38.33333333	         20.00000000	        -21.66666667	          3.33333333	         90.00000000	          0.00000000	         30.00000000	         63.33333333	         30.00000000	
       1750.07000000	        -26.66666667	         20.00000000	        -21.66666667	          3.33333333	         90.00000000	          0.00000000	         30.00000000	         63.33333333	         30.00000000	
       1750.08000000	        -15.00000000	         20.00000000	        -21.66666667	          3.33333333	         90.00000000	          0.00000000	         30.00000000	         63.33333333	         30.00000000	
       1750.09000000	        -50.00000000	        -10.00000000	         -3.33333333	          3.33333333	         90.00000000	          0.00000000	         30.00000000	         63.33333333	         30.00000000	
       1750.10000000	        -38.33333333	        -10.00000000	         -3.33333333	          3.33333333	         90.00000000	          0.00000000	         30.00000000	         63.33333333	         30.00000000	
       1750.11000000	        -26.66666667	        -10.00000000	         -3.33333333	          3.33333333	         90.00000000	          0.00000000	         30.00000000	         63.33333333	         30.00000000	
       1750.12000000	        -15.00000000	        -10.00000000	         -3.33333333	          3.33333333	         90.00000000	          0.00000000	         30.00000000	         63.33333333	         30.00000000	
       1750.13000000	        -50.00000000	          0.00000000	         -3.33333333	          3.33333333	         90.00000000	          0.00000000	         30.00000000	         63.33333333	         30.00000000	
       1750.14000000	        -38.33333333	          0.00000000	         -3.33333333	          3.33333333	         90.00000000	          0.00000000	         30.00000000	         63.33333333	         30.00000000	
       1750.15000000	        -26.66666667	          0.00000000	         -3.33333333	          3.33333333	         90.00000000	          0.00000000	         30.00000000	         63.33333333	         30.00000000	
       1750.16000000	        -15.00000000	          0.00000000	         -3.33333333	          3.33333333	         90.00000000	          0.00000000	         30.00000000	         63.33333333	         30.00000000	
       1750.17000000	        -50.00000000	         10.00000000	         -3.33333333	          3.33333333	         90.00000000	          0.00000000	         30.00000000	         63.33333333	         30.00000000	
       1750.18000000	        -38.33333333	         10.00000000	         -3.33333333	          3.33333333	         90.00000000	          0.00000000	         30.00000000	         63.33333333	         30.00000000	
       1750.19000000	        -26.66666667	         10.00000000	         -3.33333333	          3.33333333	         90.00000000	          0.00000000	         30.00000000	         63.33333333	         30.00000000	
       1750.20000000	        -15.00000000	         10.00000000	         -3.33333333	          3.33333333	         90.00000000	          0.00000000	         30.00000000	         63.33333333	         30.00000000	
       1750.21000000	        -50.00000000	         20.00000000	         -3.33333333	          3.33333333	         90.00000000	          0.00000000	         30.00000000	         63.33333333	         30.00000000	
       1750.22000000	        -38.33333333	         20.00000000	         -3.33333333	          3.33333333	         90.00000000	          0.00000000	         30.00000000	         63.33333333	         30.00000000	
       1750.23000000	        -26.66666667	         20.00000000	         -3.33333333	          3.33333333	         90.00000000	          0.00000000	         30.00000000	         63.33333333	         30.00000000	
       1750.24000000	        -15.00000000	         20.00000000	         -3.33333333	          3.33333333	         90.00000000	          0.00000000	         30.00000000	         63.33333333	         30.00000000	
       1750.25000000	        -50.00000000	        -10.00000000	         15.00000000	          3.33333333	         90.00000000	          0.00000000	         30.00000000	         63.33333333	         30.00000000	
       1750.26000000	        -38.33333333	        -10.00000000	         15.00000000	          3.33333333	         90.00000000	          0.00000000	         30.00000000	         63.33333333	         30.00000000	
       1750.27000000	        -26.66666667	        -10.00000000	         15.00000000	          3.33333333	         90.00000000	          0.00000000	         30.00000000	         63.33333333	         30.00000000	
       1750.28000000	        -15.00000000	        -10.00000000	         15.00000000	          3.33333333	         90.00000000	          0.00000000	         30.00000000	         63.33333333	         30.00000000	
       1750.29000000	        -50.00000000	          0.00000000	         15.00000000	          3.33333333	         90.00000000	          0.00000000	         30.00000000	         63.33333333	         30.00000000	
       1750.30000000	        -38.33333333	          0.00000000	         15.00000000	          3.33333333	         90.00000000	          0.00000000	         30.00000000	         63.33333333	         30.00000000	
       1750.31000000	        -26.66666667	          0.00000000	         15.00000000	          3.33333333	         90.00000000	          0.00000000	         30.00000000	         63.33333333	         30.00000000	
       1750.32000000	        -15.00000000	          0.00000000	         15.00000000	          3.33333333	         90.00000000	          0.00000000	         30.00000000	         63.33333333	         30.00000000	
       1750.33000000	        -50.00000000	         10.00000000	         15.00000000	          3.33333333	         90.00000000	          0.00000000	         30.00000000	         63.33333333	         30.00000000	
